<mxfile host="app.diagrams.net" modified="2022-02-02T02:59:28.332Z" agent="5.0 (Windows NT 10.0; Win64; x64) AppleWebKit/537.36 (KHTML, like Gecko) Chrome/97.0.4692.99 Safari/537.36 Edg/97.0.1072.76" etag="NU12buLfldd-V4h5plSx" version="16.5.2" type="github">
  <diagram id="R2lEEEUBdFMjLlhIrx00" name="Page-1">
    <mxGraphModel dx="1042" dy="579" grid="1" gridSize="10" guides="1" tooltips="1" connect="1" arrows="1" fold="1" page="1" pageScale="1" pageWidth="850" pageHeight="1100" math="0" shadow="0" extFonts="Permanent Marker^https://fonts.googleapis.com/css?family=Permanent+Marker">
      <root>
        <mxCell id="0" />
        <mxCell id="1" parent="0" />
        <mxCell id="tJBJaZkdlJi__RJF__rX-53" value="Distribuye" style="shape=rhombus;perimeter=rhombusPerimeter;whiteSpace=wrap;html=1;align=center;" vertex="1" parent="1">
          <mxGeometry x="640" y="510" width="120" height="60" as="geometry" />
        </mxCell>
        <mxCell id="tJBJaZkdlJi__RJF__rX-54" value="Contrata" style="shape=rhombus;perimeter=rhombusPerimeter;whiteSpace=wrap;html=1;align=center;" vertex="1" parent="1">
          <mxGeometry x="480" y="110" width="120" height="60" as="geometry" />
        </mxCell>
        <mxCell id="tJBJaZkdlJi__RJF__rX-78" value="Emisor" style="rounded=1;whiteSpace=wrap;html=1;" vertex="1" parent="1">
          <mxGeometry x="290" y="110" width="120" height="60" as="geometry" />
        </mxCell>
        <mxCell id="tJBJaZkdlJi__RJF__rX-80" value="" style="line;strokeWidth=1;rotatable=0;dashed=0;labelPosition=right;align=left;verticalAlign=middle;spacingTop=0;spacingLeft=6;points=[];portConstraint=eastwest;" vertex="1" parent="1">
          <mxGeometry x="410" y="135" width="70" height="10" as="geometry" />
        </mxCell>
        <mxCell id="tJBJaZkdlJi__RJF__rX-83" value="Empresa de mensajería" style="rounded=1;whiteSpace=wrap;html=1;" vertex="1" parent="1">
          <mxGeometry x="670" y="110" width="120" height="60" as="geometry" />
        </mxCell>
        <mxCell id="tJBJaZkdlJi__RJF__rX-84" value="" style="endArrow=none;html=1;rounded=0;exitX=1;exitY=0.5;exitDx=0;exitDy=0;" edge="1" parent="1" source="tJBJaZkdlJi__RJF__rX-54">
          <mxGeometry width="50" height="50" relative="1" as="geometry">
            <mxPoint x="620" y="185" as="sourcePoint" />
            <mxPoint x="670" y="140" as="targetPoint" />
          </mxGeometry>
        </mxCell>
        <mxCell id="tJBJaZkdlJi__RJF__rX-86" value="Destina" style="shape=rhombus;perimeter=rhombusPerimeter;whiteSpace=wrap;html=1;align=center;" vertex="1" parent="1">
          <mxGeometry x="870" y="110" width="120" height="60" as="geometry" />
        </mxCell>
        <mxCell id="tJBJaZkdlJi__RJF__rX-87" value="" style="line;strokeWidth=1;rotatable=0;dashed=0;labelPosition=right;align=left;verticalAlign=middle;spacingTop=0;spacingLeft=6;points=[];portConstraint=eastwest;" vertex="1" parent="1">
          <mxGeometry x="790" y="135" width="80" height="10" as="geometry" />
        </mxCell>
        <mxCell id="tJBJaZkdlJi__RJF__rX-89" value="Conductor" style="rounded=1;whiteSpace=wrap;html=1;" vertex="1" parent="1">
          <mxGeometry x="870" y="240" width="120" height="60" as="geometry" />
        </mxCell>
        <mxCell id="tJBJaZkdlJi__RJF__rX-90" value="" style="line;strokeWidth=1;rotatable=0;dashed=0;labelPosition=right;align=left;verticalAlign=middle;spacingTop=0;spacingLeft=6;points=[];portConstraint=eastwest;direction=north;" vertex="1" parent="1">
          <mxGeometry x="925" y="170" width="10" height="70" as="geometry" />
        </mxCell>
        <mxCell id="tJBJaZkdlJi__RJF__rX-94" value="Conduce" style="shape=rhombus;perimeter=rhombusPerimeter;whiteSpace=wrap;html=1;align=center;" vertex="1" parent="1">
          <mxGeometry x="870" y="380" width="120" height="60" as="geometry" />
        </mxCell>
        <mxCell id="tJBJaZkdlJi__RJF__rX-95" value="" style="line;strokeWidth=1;rotatable=0;dashed=0;labelPosition=right;align=left;verticalAlign=middle;spacingTop=0;spacingLeft=6;points=[];portConstraint=eastwest;direction=north;" vertex="1" parent="1">
          <mxGeometry x="925" y="300" width="10" height="80" as="geometry" />
        </mxCell>
        <mxCell id="tJBJaZkdlJi__RJF__rX-96" value="" style="line;strokeWidth=1;rotatable=0;dashed=0;labelPosition=right;align=left;verticalAlign=middle;spacingTop=0;spacingLeft=6;points=[];portConstraint=eastwest;direction=north;" vertex="1" parent="1">
          <mxGeometry x="925" y="440" width="10" height="70" as="geometry" />
        </mxCell>
        <mxCell id="tJBJaZkdlJi__RJF__rX-100" value="" style="endArrow=none;html=1;rounded=0;" edge="1" parent="1">
          <mxGeometry width="50" height="50" relative="1" as="geometry">
            <mxPoint x="550" y="540" as="sourcePoint" />
            <mxPoint x="640" y="540" as="targetPoint" />
          </mxGeometry>
        </mxCell>
        <mxCell id="tJBJaZkdlJi__RJF__rX-101" value="Paquete" style="rounded=1;whiteSpace=wrap;html=1;" vertex="1" parent="1">
          <mxGeometry x="430" y="510" width="120" height="60" as="geometry" />
        </mxCell>
        <mxCell id="tJBJaZkdlJi__RJF__rX-105" value="Se entrega" style="shape=rhombus;perimeter=rhombusPerimeter;whiteSpace=wrap;html=1;align=center;" vertex="1" parent="1">
          <mxGeometry x="430" y="650" width="120" height="60" as="geometry" />
        </mxCell>
        <mxCell id="tJBJaZkdlJi__RJF__rX-106" value="Receptor" style="rounded=1;whiteSpace=wrap;html=1;" vertex="1" parent="1">
          <mxGeometry x="210" y="650" width="120" height="60" as="geometry" />
        </mxCell>
        <mxCell id="tJBJaZkdlJi__RJF__rX-107" value="" style="endArrow=none;html=1;rounded=0;exitX=1;exitY=0.5;exitDx=0;exitDy=0;" edge="1" parent="1" source="tJBJaZkdlJi__RJF__rX-53">
          <mxGeometry width="50" height="50" relative="1" as="geometry">
            <mxPoint x="820" y="590" as="sourcePoint" />
            <mxPoint x="870" y="540" as="targetPoint" />
          </mxGeometry>
        </mxCell>
        <mxCell id="tJBJaZkdlJi__RJF__rX-108" value="" style="endArrow=none;html=1;rounded=0;" edge="1" parent="1">
          <mxGeometry width="50" height="50" relative="1" as="geometry">
            <mxPoint x="490" y="650" as="sourcePoint" />
            <mxPoint x="490" y="570" as="targetPoint" />
          </mxGeometry>
        </mxCell>
        <mxCell id="tJBJaZkdlJi__RJF__rX-109" value="" style="endArrow=none;html=1;rounded=0;" edge="1" parent="1">
          <mxGeometry width="50" height="50" relative="1" as="geometry">
            <mxPoint x="330" y="680" as="sourcePoint" />
            <mxPoint x="430" y="680" as="targetPoint" />
          </mxGeometry>
        </mxCell>
        <mxCell id="tJBJaZkdlJi__RJF__rX-111" value="Camión" style="shape=ext;margin=3;double=1;whiteSpace=wrap;html=1;align=center;" vertex="1" parent="1">
          <mxGeometry x="860" y="510" width="130" height="50" as="geometry" />
        </mxCell>
        <mxCell id="tJBJaZkdlJi__RJF__rX-113" value="Nombre" style="ellipse;whiteSpace=wrap;html=1;align=center;" vertex="1" parent="1">
          <mxGeometry x="200" y="210" width="80" height="30" as="geometry" />
        </mxCell>
        <mxCell id="tJBJaZkdlJi__RJF__rX-114" value="&lt;span&gt;Dirección&lt;/span&gt;" style="ellipse;whiteSpace=wrap;html=1;align=center;" vertex="1" parent="1">
          <mxGeometry x="300" y="210" width="80" height="30" as="geometry" />
        </mxCell>
        <mxCell id="tJBJaZkdlJi__RJF__rX-118" value="" style="endArrow=none;html=1;rounded=0;entryX=0.087;entryY=1.057;entryDx=0;entryDy=0;entryPerimeter=0;" edge="1" parent="1" target="tJBJaZkdlJi__RJF__rX-78">
          <mxGeometry width="50" height="50" relative="1" as="geometry">
            <mxPoint x="260" y="210" as="sourcePoint" />
            <mxPoint x="310" y="160" as="targetPoint" />
          </mxGeometry>
        </mxCell>
        <mxCell id="tJBJaZkdlJi__RJF__rX-119" value="" style="endArrow=none;html=1;rounded=0;entryX=0.5;entryY=1;entryDx=0;entryDy=0;exitX=0.5;exitY=0;exitDx=0;exitDy=0;" edge="1" parent="1" source="tJBJaZkdlJi__RJF__rX-114" target="tJBJaZkdlJi__RJF__rX-78">
          <mxGeometry width="50" height="50" relative="1" as="geometry">
            <mxPoint x="330" y="210" as="sourcePoint" />
            <mxPoint x="360" y="180" as="targetPoint" />
          </mxGeometry>
        </mxCell>
        <mxCell id="tJBJaZkdlJi__RJF__rX-120" value="Nombre" style="ellipse;whiteSpace=wrap;html=1;align=center;" vertex="1" parent="1">
          <mxGeometry x="1000" y="220" width="80" height="30" as="geometry" />
        </mxCell>
        <mxCell id="tJBJaZkdlJi__RJF__rX-121" value="Destino" style="ellipse;whiteSpace=wrap;html=1;align=center;" vertex="1" parent="1">
          <mxGeometry x="770" y="290" width="80" height="30" as="geometry" />
        </mxCell>
        <mxCell id="tJBJaZkdlJi__RJF__rX-122" value="Teléfono" style="ellipse;whiteSpace=wrap;html=1;align=center;" vertex="1" parent="1">
          <mxGeometry x="650" y="200" width="80" height="30" as="geometry" />
        </mxCell>
        <mxCell id="tJBJaZkdlJi__RJF__rX-123" value="Dirección" style="ellipse;whiteSpace=wrap;html=1;align=center;" vertex="1" parent="1">
          <mxGeometry x="760" y="200" width="80" height="30" as="geometry" />
        </mxCell>
        <mxCell id="tJBJaZkdlJi__RJF__rX-124" value="Placa" style="ellipse;whiteSpace=wrap;html=1;align=center;" vertex="1" parent="1">
          <mxGeometry x="1010" y="490" width="80" height="30" as="geometry" />
        </mxCell>
        <mxCell id="tJBJaZkdlJi__RJF__rX-126" value="Dirección" style="ellipse;whiteSpace=wrap;html=1;align=center;" vertex="1" parent="1">
          <mxGeometry x="935" y="590" width="80" height="30" as="geometry" />
        </mxCell>
        <mxCell id="tJBJaZkdlJi__RJF__rX-127" value="Dirección" style="ellipse;whiteSpace=wrap;html=1;align=center;" vertex="1" parent="1">
          <mxGeometry x="370" y="440" width="80" height="30" as="geometry" />
        </mxCell>
        <mxCell id="tJBJaZkdlJi__RJF__rX-128" value="Peso" style="ellipse;whiteSpace=wrap;html=1;align=center;" vertex="1" parent="1">
          <mxGeometry x="500" y="440" width="80" height="30" as="geometry" />
        </mxCell>
        <mxCell id="tJBJaZkdlJi__RJF__rX-129" value="Código" style="ellipse;whiteSpace=wrap;html=1;align=center;" vertex="1" parent="1">
          <mxGeometry x="560" y="600" width="80" height="30" as="geometry" />
        </mxCell>
        <mxCell id="tJBJaZkdlJi__RJF__rX-130" value="Nombre" style="ellipse;whiteSpace=wrap;html=1;align=center;" vertex="1" parent="1">
          <mxGeometry x="180" y="580" width="80" height="30" as="geometry" />
        </mxCell>
        <mxCell id="tJBJaZkdlJi__RJF__rX-131" value="Dirección" style="ellipse;whiteSpace=wrap;html=1;align=center;" vertex="1" parent="1">
          <mxGeometry x="290" y="590" width="80" height="30" as="geometry" />
        </mxCell>
        <mxCell id="tJBJaZkdlJi__RJF__rX-132" value="CC" style="ellipse;whiteSpace=wrap;html=1;align=center;" vertex="1" parent="1">
          <mxGeometry x="170" y="760" width="80" height="30" as="geometry" />
        </mxCell>
        <mxCell id="tJBJaZkdlJi__RJF__rX-134" value="CC" style="ellipse;whiteSpace=wrap;html=1;align=center;" vertex="1" parent="1">
          <mxGeometry x="990" y="310" width="80" height="30" as="geometry" />
        </mxCell>
        <mxCell id="tJBJaZkdlJi__RJF__rX-135" value="n/1" style="text;html=1;strokeColor=none;fillColor=none;align=center;verticalAlign=middle;whiteSpace=wrap;rounded=0;" vertex="1" parent="1">
          <mxGeometry x="670" y="470" width="60" height="30" as="geometry" />
        </mxCell>
        <mxCell id="tJBJaZkdlJi__RJF__rX-136" value="1/1" style="text;html=1;strokeColor=none;fillColor=none;align=center;verticalAlign=middle;whiteSpace=wrap;rounded=0;" vertex="1" parent="1">
          <mxGeometry x="510" y="70" width="60" height="30" as="geometry" />
        </mxCell>
        <mxCell id="tJBJaZkdlJi__RJF__rX-137" value="1/n" style="text;html=1;strokeColor=none;fillColor=none;align=center;verticalAlign=middle;whiteSpace=wrap;rounded=0;" vertex="1" parent="1">
          <mxGeometry x="900" y="70" width="60" height="30" as="geometry" />
        </mxCell>
        <mxCell id="tJBJaZkdlJi__RJF__rX-138" value="1/1" style="text;html=1;strokeColor=none;fillColor=none;align=center;verticalAlign=middle;whiteSpace=wrap;rounded=0;" vertex="1" parent="1">
          <mxGeometry x="935" y="360" width="60" height="30" as="geometry" />
        </mxCell>
        <mxCell id="tJBJaZkdlJi__RJF__rX-139" value="1/n" style="text;html=1;strokeColor=none;fillColor=none;align=center;verticalAlign=middle;whiteSpace=wrap;rounded=0;" vertex="1" parent="1">
          <mxGeometry x="395" y="640" width="60" height="30" as="geometry" />
        </mxCell>
        <mxCell id="tJBJaZkdlJi__RJF__rX-140" value="" style="endArrow=none;html=1;rounded=0;exitX=0.5;exitY=0;exitDx=0;exitDy=0;" edge="1" parent="1" source="tJBJaZkdlJi__RJF__rX-122">
          <mxGeometry width="50" height="50" relative="1" as="geometry">
            <mxPoint x="660" y="220" as="sourcePoint" />
            <mxPoint x="710" y="170" as="targetPoint" />
          </mxGeometry>
        </mxCell>
        <mxCell id="tJBJaZkdlJi__RJF__rX-142" value="" style="endArrow=none;html=1;rounded=0;exitX=0.5;exitY=0;exitDx=0;exitDy=0;" edge="1" parent="1" source="tJBJaZkdlJi__RJF__rX-123">
          <mxGeometry width="50" height="50" relative="1" as="geometry">
            <mxPoint x="730" y="220" as="sourcePoint" />
            <mxPoint x="780" y="170" as="targetPoint" />
          </mxGeometry>
        </mxCell>
        <mxCell id="tJBJaZkdlJi__RJF__rX-143" value="" style="endArrow=none;html=1;rounded=0;exitX=0.5;exitY=0;exitDx=0;exitDy=0;" edge="1" parent="1" source="tJBJaZkdlJi__RJF__rX-121">
          <mxGeometry width="50" height="50" relative="1" as="geometry">
            <mxPoint x="820" y="320" as="sourcePoint" />
            <mxPoint x="870" y="270" as="targetPoint" />
          </mxGeometry>
        </mxCell>
        <mxCell id="tJBJaZkdlJi__RJF__rX-144" value="" style="endArrow=none;html=1;rounded=0;exitX=0.5;exitY=0;exitDx=0;exitDy=0;" edge="1" parent="1">
          <mxGeometry width="50" height="50" relative="1" as="geometry">
            <mxPoint x="990" y="270" as="sourcePoint" />
            <mxPoint x="1040" y="250" as="targetPoint" />
          </mxGeometry>
        </mxCell>
        <mxCell id="tJBJaZkdlJi__RJF__rX-145" value="" style="endArrow=none;html=1;rounded=0;" edge="1" parent="1" source="tJBJaZkdlJi__RJF__rX-89">
          <mxGeometry width="50" height="50" relative="1" as="geometry">
            <mxPoint x="970" y="330" as="sourcePoint" />
            <mxPoint x="1030" y="310" as="targetPoint" />
          </mxGeometry>
        </mxCell>
        <mxCell id="tJBJaZkdlJi__RJF__rX-147" value="" style="endArrow=none;html=1;rounded=0;" edge="1" parent="1">
          <mxGeometry width="50" height="50" relative="1" as="geometry">
            <mxPoint x="990" y="530" as="sourcePoint" />
            <mxPoint x="1055" y="520" as="targetPoint" />
          </mxGeometry>
        </mxCell>
        <mxCell id="tJBJaZkdlJi__RJF__rX-148" value="" style="endArrow=none;html=1;rounded=0;exitX=0.5;exitY=0;exitDx=0;exitDy=0;" edge="1" parent="1" source="tJBJaZkdlJi__RJF__rX-126">
          <mxGeometry width="50" height="50" relative="1" as="geometry">
            <mxPoint x="875" y="610" as="sourcePoint" />
            <mxPoint x="925" y="560" as="targetPoint" />
          </mxGeometry>
        </mxCell>
        <mxCell id="tJBJaZkdlJi__RJF__rX-149" value="" style="endArrow=none;html=1;rounded=0;" edge="1" parent="1">
          <mxGeometry width="50" height="50" relative="1" as="geometry">
            <mxPoint x="500" y="510" as="sourcePoint" />
            <mxPoint x="540" y="470" as="targetPoint" />
            <Array as="points">
              <mxPoint x="510" y="500" />
            </Array>
          </mxGeometry>
        </mxCell>
        <mxCell id="tJBJaZkdlJi__RJF__rX-151" value="" style="endArrow=none;html=1;rounded=0;exitX=0.25;exitY=0;exitDx=0;exitDy=0;" edge="1" parent="1" source="tJBJaZkdlJi__RJF__rX-101">
          <mxGeometry width="50" height="50" relative="1" as="geometry">
            <mxPoint x="370" y="520" as="sourcePoint" />
            <mxPoint x="420" y="470" as="targetPoint" />
            <Array as="points" />
          </mxGeometry>
        </mxCell>
        <mxCell id="tJBJaZkdlJi__RJF__rX-153" value="" style="endArrow=none;html=1;rounded=0;entryX=1;entryY=1;entryDx=0;entryDy=0;exitX=0.5;exitY=0;exitDx=0;exitDy=0;" edge="1" parent="1" source="tJBJaZkdlJi__RJF__rX-129" target="tJBJaZkdlJi__RJF__rX-101">
          <mxGeometry width="50" height="50" relative="1" as="geometry">
            <mxPoint x="600" y="590" as="sourcePoint" />
            <mxPoint x="650" y="540" as="targetPoint" />
          </mxGeometry>
        </mxCell>
        <mxCell id="tJBJaZkdlJi__RJF__rX-154" value="" style="endArrow=none;html=1;rounded=0;exitX=0.6;exitY=0.017;exitDx=0;exitDy=0;exitPerimeter=0;" edge="1" parent="1" source="tJBJaZkdlJi__RJF__rX-106">
          <mxGeometry width="50" height="50" relative="1" as="geometry">
            <mxPoint x="280" y="670" as="sourcePoint" />
            <mxPoint x="330" y="620" as="targetPoint" />
          </mxGeometry>
        </mxCell>
        <mxCell id="tJBJaZkdlJi__RJF__rX-155" value="" style="endArrow=none;html=1;rounded=0;entryX=0.5;entryY=1;entryDx=0;entryDy=0;exitX=0.25;exitY=0;exitDx=0;exitDy=0;" edge="1" parent="1" source="tJBJaZkdlJi__RJF__rX-106" target="tJBJaZkdlJi__RJF__rX-130">
          <mxGeometry width="50" height="50" relative="1" as="geometry">
            <mxPoint x="600" y="630" as="sourcePoint" />
            <mxPoint x="650" y="580" as="targetPoint" />
            <Array as="points" />
          </mxGeometry>
        </mxCell>
        <mxCell id="tJBJaZkdlJi__RJF__rX-157" value="" style="endArrow=none;html=1;rounded=0;" edge="1" parent="1">
          <mxGeometry width="50" height="50" relative="1" as="geometry">
            <mxPoint x="210" y="760" as="sourcePoint" />
            <mxPoint x="260" y="710" as="targetPoint" />
          </mxGeometry>
        </mxCell>
        <mxCell id="tJBJaZkdlJi__RJF__rX-159" value="Teléfono&amp;nbsp;" style="ellipse;whiteSpace=wrap;html=1;align=center;" vertex="1" parent="1">
          <mxGeometry x="210" y="50" width="80" height="30" as="geometry" />
        </mxCell>
        <mxCell id="tJBJaZkdlJi__RJF__rX-160" value="" style="endArrow=none;html=1;rounded=0;exitX=0.5;exitY=0;exitDx=0;exitDy=0;" edge="1" parent="1" source="tJBJaZkdlJi__RJF__rX-78">
          <mxGeometry width="50" height="50" relative="1" as="geometry">
            <mxPoint x="195" y="130" as="sourcePoint" />
            <mxPoint x="245" y="80" as="targetPoint" />
            <Array as="points" />
          </mxGeometry>
        </mxCell>
      </root>
    </mxGraphModel>
  </diagram>
</mxfile>
